<svg xmlns="http://www.w3.org/2000/svg" width="53.626" height="52.625" viewBox="0 0 53.626 52.625">
  <path id="Unión_2" data-name="Unión 2" d="M23.77,51.5a26.252,26.252,0,0,1-3.164-.444A25.78,25.78,0,0,1,.3,22.111a25.256,25.256,0,0,1,3.177-9.183A25.818,25.818,0,0,1,21.595.391C22.66.223,26.467-.234,27.314.149c-.5.065-1.021.032-1.511.084a24.717,24.717,0,0,0-3.758.7,25.738,25.738,0,0,0-17.924,33C7.863,42.63,14.782,50.553,25.028,51.342a18.99,18.99,0,0,1,2.141.129l-.349.093c-.135.016-.369.022-.652.022C25.349,51.586,24.126,51.533,23.77,51.5Zm-7.307-7.262c.666.226,1.857.95,3.422,1.46a21.462,21.462,0,0,0,4.086.9,21.211,21.211,0,0,0,8.9-.847,22.137,22.137,0,0,0,7.878-4.608l1.229-1.264a15.521,15.521,0,0,0,2.128-2.875l5.538-.007a11.3,11.3,0,0,1-1.189,1.947,24.567,24.567,0,0,1-2.81,3.276,22.428,22.428,0,0,1-9.8,5.575,21.505,21.505,0,0,1-5.832.787A22.769,22.769,0,0,1,16.463,44.242Zm11.2-7.182.047-6.463-1,1.507a13.769,13.769,0,0,1-1.733,2.341,4.006,4.006,0,0,1-2.835,1.137c-2.862,0-3.924-2.247-5.141-3.978-2.507-3.566-4.916-7.322-7.432-10.87l-2.81-4.111a11.465,11.465,0,0,1-.879-1.355l6.919,0a37.863,37.863,0,0,1,2.344,3.29c.747,1.1,1.49,2.149,2.246,3.291l3.4,4.981c.335.486.851,1.173,1.106,1.659.192-.13.068-.026.211-.205a1.68,1.68,0,0,0,.122-.186c.116-.179.157-.239.274-.418.2-.311.342-.542.541-.845L30.14,16c.189-.286.306-.587.587-.745l6.136.027L35.8,17.119q2.986,0,5.975-.006a18.506,18.506,0,0,1,4.364.341,9.054,9.054,0,0,1,3.232,1.39A6.618,6.618,0,0,1,51.052,20.4a7.324,7.324,0,0,1,.145,8.205,4.412,4.412,0,0,1-.49.586,4.12,4.12,0,0,1-1.173.983c-.027.079.007.031-.1.123l-.563.351a6.519,6.519,0,0,1-.77.371A13.794,13.794,0,0,1,42.074,32c-3.093,0-6.194-.021-9.288,0v4.867c0,.238.009.22-.019.2s-.048-.021-.1.024Zm2.358-10L41.7,26.884c.209,0,.427,0,.646.008a5.858,5.858,0,0,0,2.948-.419c1.613-.936,1.8-4.109-1.858-4.148-2.673-.027-5.364-.005-8.039,0H32.775ZM44.115,14.612a8.7,8.7,0,0,0-1.007-1.5c-.219-.28-.356-.442-.552-.7l-1.8-1.938a24.423,24.423,0,0,0-4.379-3.109,23.478,23.478,0,0,0-3.5-1.5,21.282,21.282,0,0,0-12.991.061c-1.583.524-2.713,1.214-3.424,1.46,4.487-3.562,12.358-5.528,19.386-3.562a22.714,22.714,0,0,1,8.128,4.125L45.227,9.04a20.33,20.33,0,0,1,2.6,2.788c.217.285.43.554.634.848a12.3,12.3,0,0,1,1.194,1.957Z" transform="translate(0.527 0.539)" fill="#8abe3b" stroke="rgba(0,0,0,0)" stroke-miterlimit="10" stroke-width="1"/>
</svg>
