<svg xmlns="http://www.w3.org/2000/svg" width="120.513" height="99.056" viewBox="0 0 120.513 99.056">
  <path id="Unión_1" data-name="Unión 1" d="M55.234,97.924a42.177,42.177,0,0,1-5.092-.714C28.97,92.846,14.1,72.431,17.477,50.642c.5-5.214,2.915-10.857,5.11-14.769A41.522,41.522,0,0,1,51.734,15.7c1.714-.271,7.838-1.006,9.2-.391-.809.1-1.643.051-2.432.133a39.934,39.934,0,0,0-6.046,1.12A41.4,41.4,0,0,0,23.625,69.645c6.021,14,17.149,26.748,33.633,28.018a31,31,0,0,1,3.443.208l-.562.15c-.215.025-.589.035-1.04.035C57.783,98.055,55.809,97.971,55.234,97.924ZM43.479,86.243c1.073.364,2.987,1.53,5.5,2.347a33.932,33.932,0,0,0,20.893.1A35.664,35.664,0,0,0,82.55,81.272l1.977-2.034c.866-1.1,3.066-3.474,3.423-4.624l8.909-.013a18.436,18.436,0,0,1-1.912,3.132A39.7,39.7,0,0,1,90.425,83,36.093,36.093,0,0,1,74.66,91.97a34.6,34.6,0,0,1-9.382,1.265C56.885,93.235,48.81,90.385,43.479,86.243ZM3.537,79.884l6.108-4.533-7.574-.076-.634-1.993,10.31.348.644,2.021-8.208,6.26Zm101.595.667.75-1.7,1.7.749-.75,1.7Zm2.03-4.766,1.81-6.6,9.3,2.55-.521,1.9-7.711-2.113-1.289,4.7ZM61.5,74.69l.076-10.4-1.616,2.425a22.179,22.179,0,0,1-2.787,3.766,6.45,6.45,0,0,1-4.561,1.829c-4.6.005-6.313-3.615-8.268-6.4-4.033-5.737-7.909-11.781-11.957-17.488l-4.521-6.612a18.677,18.677,0,0,1-1.414-2.178l11.131-.008c.319.076,3.361,4.7,3.768,5.293,1.2,1.76,2.4,3.457,3.615,5.294l5.472,8.013c.538.782,1.368,1.885,1.778,2.667.308-.208.112-.042.339-.33a2.488,2.488,0,0,0,.2-.3c.185-.289.252-.385.441-.673.329-.5.551-.871.87-1.359L65.481,40.819c.3-.46.492-.945.945-1.2l9.868.043-1.714,2.948q4.806,0,9.612-.01a29.865,29.865,0,0,1,7.021.549c1.459.336,4.368,1.367,5.2,2.236A10.619,10.619,0,0,1,99.118,47.9a11.776,11.776,0,0,1,.233,13.2,7.02,7.02,0,0,1-.787.942,6.59,6.59,0,0,1-1.887,1.58c-.043.129.012.052-.162.2l-.905.564a10.421,10.421,0,0,1-1.241.6c-3.395,1.433-5.978,1.582-9.691,1.58-4.975,0-9.963-.035-14.94,0V74.39c0,.382.013.355-.032.327-.027-.017-.076-.034-.165.039Zm12.435-23.71H69.719L65.29,58.6l18.781-.283c.336,0,.684.006,1.038.014,1.668.033,3.462.067,4.745-.677,2.595-1.5,2.891-6.61-2.991-6.671q-2.479-.025-4.967-.022C79.24,50.964,76.581,50.978,73.932,50.981ZM.47,66.575l9.655-1.125.228,1.955L.7,68.53Zm109.009-1.247.139-1.854,1.855.139-.14,1.855ZM0,61.267.053,59.3l7.993.218.132-4.873,1.642.044-.185,6.84ZM111.109,59.3a2.79,2.79,0,0,1-1.171-1.237,5.484,5.484,0,0,1-.5-2.085A4.21,4.21,0,0,1,110.1,53.1a3.691,3.691,0,0,1,2.389-1.344l.32,1.9a2.33,2.33,0,0,0-1.359.791,2.1,2.1,0,0,0-.352,1.445,2.166,2.166,0,0,0,.5,1.393,1.2,1.2,0,0,0,.967.415.9.9,0,0,0,.574-.241,1.59,1.59,0,0,0,.369-.731c.066-.234.17-.761.318-1.588a5.315,5.315,0,0,1,.814-2.267,2.577,2.577,0,0,1,3.316-.7,2.631,2.631,0,0,1,1.067,1.14,4.819,4.819,0,0,1,.469,1.88,4.043,4.043,0,0,1-.621,2.793,2.877,2.877,0,0,1-2.093,1.114l-.2-1.959a1.688,1.688,0,0,0,1.043-.609,1.951,1.951,0,0,0,.245-1.253,2.2,2.2,0,0,0-.443-1.3.717.717,0,0,0-.626-.268.748.748,0,0,0-.569.332,5.084,5.084,0,0,0-.53,1.839,9.386,9.386,0,0,1-.553,2.154,2.738,2.738,0,0,1-.914,1.138,2.891,2.891,0,0,1-1.517.491q-.1.007-.2.007A2.877,2.877,0,0,1,111.109,59.3ZM.795,49.211l.428-1.922,4.2.936-3.34-4.808.572-2.574,2.9,4.4,6.632-2.475-.552,2.478L6.6,46.867l1.242,1.9,2.869.639-.427,1.921Zm108.077-4.874a2.781,2.781,0,0,1-1.474-.851,5.5,5.5,0,0,1-1.071-1.859,4.213,4.213,0,0,1-.19-2.95,3.687,3.687,0,0,1,1.908-1.967l.846,1.728a2.325,2.325,0,0,0-1.078,1.144,2.106,2.106,0,0,0,.073,1.487,2.188,2.188,0,0,0,.872,1.194,1.2,1.2,0,0,0,1.045.122.887.887,0,0,0,.481-.394,1.589,1.589,0,0,0,.147-.8c0-.243-.053-.779-.147-1.613a5.291,5.291,0,0,1,.136-2.4,2.575,2.575,0,0,1,2.979-1.615,2.638,2.638,0,0,1,1.347.79,4.817,4.817,0,0,1,.983,1.669,4.05,4.05,0,0,1,.2,2.856,2.877,2.877,0,0,1-1.689,1.661l-.75-1.821a1.685,1.685,0,0,0,.826-.88,1.951,1.951,0,0,0-.121-1.271,2.2,2.2,0,0,0-.794-1.121.716.716,0,0,0-.677-.078.742.742,0,0,0-.451.479,5.058,5.058,0,0,0,.014,1.914,9.38,9.38,0,0,1,.081,2.223,2.729,2.729,0,0,1-.552,1.35,2.906,2.906,0,0,1-1.315.9,2.841,2.841,0,0,1-.994.181A3.007,3.007,0,0,1,108.872,44.338ZM4.9,35.734,8.12,29.3l1.469.736L7.248,34.708l1.93.968,2.177-4.346,1.468.736L10.647,36.41,13,37.591l2.425-4.844,1.469.735-3.307,6.6Zm83.063,2.845a14.015,14.015,0,0,0-1.62-2.414c-.353-.45-.571-.71-.887-1.12l-2.9-3.118a39.252,39.252,0,0,0-7.046-5,37.639,37.639,0,0,0-5.625-2.415,34.262,34.262,0,0,0-20.9.1c-2.546.843-4.364,1.953-5.506,2.351,7.218-5.731,19.877-8.895,31.184-5.731a36.542,36.542,0,0,1,13.073,6.636l2.015,1.75A32.751,32.751,0,0,1,93.931,34.1c.349.458.693.891,1.019,1.364a19.81,19.81,0,0,1,1.922,3.146Zm13.151-7.235,6.653-4.579-1.633-2.372,1.354-.931,4.372,6.35-1.354.932-1.624-2.359-6.653,4.58ZM11.239,24.536l4.44-5.661,1.293,1.014L13.746,24l1.7,1.332,3-3.824,1.293,1.013-3,3.824,2.073,1.625,3.342-4.262,1.293,1.014-4.558,5.811Zm85.82.642a4.135,4.135,0,0,1-2.4-1.229,4.179,4.179,0,0,1-1.377-3.163A5.064,5.064,0,0,1,94.9,17.313a5.312,5.312,0,0,1,3.518-1.849,4.3,4.3,0,0,1,3.307,1.317,4.041,4.041,0,0,1,1.356,2.771,3.837,3.837,0,0,1-.527,1.984l-1.719-1.013a2,2,0,0,0-.347-2.6,2.213,2.213,0,0,0-1.8-.658,3.782,3.782,0,0,0-2.228,1.342,4.072,4.072,0,0,0-1.34,2.349,2.15,2.15,0,0,0,.7,1.76,1.957,1.957,0,0,0,1.316.577,2.889,2.889,0,0,0,1.67-.567l.964,1.74a4.566,4.566,0,0,1-2.332.728A3.329,3.329,0,0,1,97.06,25.177Zm-76.7-10.686,3.283-2.512A7.11,7.11,0,0,1,25.6,10.813a2.232,2.232,0,0,1,1.464.051,2.808,2.808,0,0,1,1.268.958,2.6,2.6,0,0,1,.59,1.825,3.08,3.08,0,0,1-.976,1.878,4.442,4.442,0,0,1,1.325.011,11.072,11.072,0,0,1,1.844.578L33.2,16.9l-1.863,1.425-2.407-.83a13.3,13.3,0,0,0-1.691-.5,1.518,1.518,0,0,0-.714.039,3.291,3.291,0,0,0-.855.517l-.316.242,2.467,3.224-1.564,1.2Zm4.936-1.665q-.211.119-1.157.843l-1.217.931,1.5,1.962,1.154-.883A7.518,7.518,0,0,0,26.9,14.513a1.056,1.056,0,0,0,.187-.661,1.276,1.276,0,0,0-.286-.7,1.176,1.176,0,0,0-.691-.471,1.02,1.02,0,0,0-.207-.021A1.294,1.294,0,0,0,25.292,12.827Zm57.384,2.1,5.2-8.213,6.079,3.848-.878,1.388-4.417-2.8L87.5,10.981l4.107,2.6-.879,1.387-4.106-2.6-1.409,2.226,4.576,2.9-.877,1.389ZM35.844,4.675l2.948-1.1A11.368,11.368,0,0,1,41.028,2.9a2.556,2.556,0,0,1,1.642.4,3.019,3.019,0,0,1,1.189,1.578,3.2,3.2,0,0,1,.222,1.524,2.692,2.692,0,0,1-.437,1.185,2.854,2.854,0,0,1-.792.786A11.14,11.14,0,0,1,41,9.217l-1.2.446L41.08,13.1l-1.843.687Zm4.644.094a9.493,9.493,0,0,0-1.342.429l-.885.329.967,2.6,1-.373a4.974,4.974,0,0,0,1.394-.684A1.259,1.259,0,0,0,42.03,6.4a1.311,1.311,0,0,0-.056-.787,1.269,1.269,0,0,0-.6-.715,1.342,1.342,0,0,0-.628-.156A1.485,1.485,0,0,0,40.488,4.769Zm35.383,7.555a2.929,2.929,0,0,1-1.853-1.452,3.289,3.289,0,0,1-.01-2.486l1.835.372a2.588,2.588,0,0,0-.135,1.191,1.215,1.215,0,0,0,1.739.725,2.974,2.974,0,0,0,.739-1.393l1.956-5.972,1.87.612L80.1,9.774a6.269,6.269,0,0,1-.781,1.7,2.661,2.661,0,0,1-2.152,1.077A4.192,4.192,0,0,1,75.871,12.324ZM48.556.619,52.662.14a7.089,7.089,0,0,1,2.281,0,2.228,2.228,0,0,1,1.23.792,2.8,2.8,0,0,1,.6,1.473,2.591,2.591,0,0,1-.427,1.869,3.073,3.073,0,0,1-1.8,1.113,4.5,4.5,0,0,1,1.132.688,10.987,10.987,0,0,1,1.289,1.44l1.4,1.746-2.331.272L54.391,7.589a12.885,12.885,0,0,0-1.2-1.3,1.5,1.5,0,0,0-.633-.332,3.333,3.333,0,0,0-1,.007l-.4.046.469,4.032-1.955.228Zm3.667,1.227L50.7,2.023l.284,2.453,1.444-.167a7.552,7.552,0,0,0,1.737-.323,1.056,1.056,0,0,0,.5-.473,1.261,1.261,0,0,0,.114-.749,1.177,1.177,0,0,0-.354-.758,1.191,1.191,0,0,0-.777-.292h-.02Q53.361,1.713,52.223,1.846Zm13.525,8.205a4.568,4.568,0,0,1-3.261-1.74,5.029,5.029,0,0,1-.823-3.781,6.187,6.187,0,0,1,.749-2.424A4.539,4.539,0,0,1,63.474.893,3.835,3.835,0,0,1,64.828.175,5.383,5.383,0,0,1,66.957.05,4.577,4.577,0,0,1,70.209,1.8a5.128,5.128,0,0,1,.824,3.846A5.111,5.111,0,0,1,69.31,9.148a4.3,4.3,0,0,1-2.8.952A6.2,6.2,0,0,1,65.749,10.051Zm-1.022-7.74a3.676,3.676,0,0,0-1.046,2.4A3.649,3.649,0,0,0,64.131,7.3a2.63,2.63,0,0,0,3.842.482,3.733,3.733,0,0,0,1.058-2.429,3.647,3.647,0,0,0-.424-2.567,2.481,2.481,0,0,0-1.835-1.058,3.224,3.224,0,0,0-.394-.025A2.427,2.427,0,0,0,64.726,2.311Z" transform="translate(0.513 0.5)" fill="#8abe3b" stroke="rgba(0,0,0,0)" stroke-miterlimit="10" stroke-width="1"/>
</svg>
