<svg xmlns="http://www.w3.org/2000/svg" width="259" height="61" viewBox="0 0 259 61">
  <g id="Grupo_3" data-name="Grupo 3" transform="translate(-51 170)">
    <rect id="Rect치ngulo_5" data-name="Rect치ngulo 5" width="259" height="61" transform="translate(51 -170)" fill="none"/>
    <g id="Grupo_2" data-name="Grupo 2" transform="translate(-21 -189)">
      <path id="Uni칩n_5" data-name="Uni칩n 5" d="M23.77,51.5a26.252,26.252,0,0,1-3.164-.444A25.78,25.78,0,0,1,.3,22.111a25.256,25.256,0,0,1,3.177-9.183A25.818,25.818,0,0,1,21.595.391C22.66.223,26.467-.234,27.314.149c-.5.065-1.021.032-1.511.084a24.717,24.717,0,0,0-3.758.7,25.738,25.738,0,0,0-17.924,33C7.863,42.63,14.782,50.553,25.028,51.342a18.99,18.99,0,0,1,2.141.129l-.349.093c-.135.016-.369.022-.652.022C25.349,51.586,24.126,51.533,23.77,51.5Zm-7.307-7.262c.666.226,1.857.95,3.422,1.46a21.462,21.462,0,0,0,4.086.9,21.211,21.211,0,0,0,8.9-.847,22.137,22.137,0,0,0,7.878-4.608l1.229-1.264a15.521,15.521,0,0,0,2.128-2.875l5.538-.007a11.3,11.3,0,0,1-1.189,1.947,24.567,24.567,0,0,1-2.81,3.276,22.428,22.428,0,0,1-9.8,5.575,21.505,21.505,0,0,1-5.832.787A22.769,22.769,0,0,1,16.463,44.242Zm11.2-7.182.047-6.463-1,1.507a13.769,13.769,0,0,1-1.733,2.341,4.006,4.006,0,0,1-2.835,1.137c-2.862,0-3.924-2.247-5.141-3.978-2.507-3.566-4.916-7.322-7.432-10.87l-2.81-4.111a11.465,11.465,0,0,1-.879-1.355l6.919,0a37.863,37.863,0,0,1,2.344,3.29c.747,1.1,1.49,2.149,2.246,3.291l3.4,4.981c.335.486.851,1.173,1.106,1.659.192-.13.068-.026.211-.205a1.68,1.68,0,0,0,.122-.186c.116-.179.157-.239.274-.418.2-.311.342-.542.541-.845L30.14,16c.189-.286.306-.587.587-.745l6.136.027L35.8,17.119q2.986,0,5.975-.006a18.506,18.506,0,0,1,4.364.341,9.054,9.054,0,0,1,3.232,1.39A6.618,6.618,0,0,1,51.052,20.4a7.324,7.324,0,0,1,.145,8.205,4.412,4.412,0,0,1-.49.586,4.12,4.12,0,0,1-1.173.983c-.027.079.007.031-.1.123l-.563.351a6.519,6.519,0,0,1-.77.371A13.794,13.794,0,0,1,42.074,32c-3.093,0-6.194-.021-9.288,0v4.867c0,.238.009.22-.019.2s-.048-.021-.1.024Zm2.358-10L41.7,26.884c.209,0,.427,0,.646.008a5.858,5.858,0,0,0,2.948-.419c1.613-.936,1.8-4.109-1.858-4.148-2.673-.027-5.364-.005-8.039,0H32.775ZM44.115,14.612a8.7,8.7,0,0,0-1.007-1.5c-.219-.28-.356-.442-.552-.7l-1.8-1.938a24.423,24.423,0,0,0-4.379-3.109,23.478,23.478,0,0,0-3.5-1.5,21.282,21.282,0,0,0-12.991.061c-1.583.524-2.713,1.214-3.424,1.46,4.487-3.562,12.358-5.528,19.386-3.562a22.714,22.714,0,0,1,8.128,4.125L45.227,9.04a20.33,20.33,0,0,1,2.6,2.788c.217.285.43.554.634.848a12.3,12.3,0,0,1,1.194,1.957Z" transform="translate(77 24)" fill="#8abe3b" stroke="rgba(0,0,0,0)" stroke-miterlimit="10" stroke-width="1"/>
      <path id="Trazado_2538" data-name="Trazado 2538" d="M13.06-13.94,7.8,0H5.7L.44-13.94H2.38L6.76-1.92l4.38-12.02Zm3.82,0V0H15.06V-13.94ZM21.8-1.48h4.88V0h-6.7V-13.94H21.8ZM36.18,0,30.44-6.36V0H28.62V-13.94h1.82v6.46l5.76-6.46h2.3L32.18-6.96,38.56,0Zm6.24-12.46V-7.8H47.5v1.5H42.42v4.8H48.1V0H40.6V-13.96h7.5v1.5Zm10.26,0V-7.8h5.08v1.5H52.68v4.8h5.68V0h-7.5V-13.96h7.5v1.5ZM68.46,0,65.14-5.7h-2.2V0H61.12V-13.94h4.5a5.974,5.974,0,0,1,2.67.54,3.76,3.76,0,0,1,1.63,1.46,4.07,4.07,0,0,1,.54,2.1,4.1,4.1,0,0,1-.83,2.54,4.056,4.056,0,0,1-2.49,1.46L70.64,0ZM62.94-7.16h2.68a3.041,3.041,0,0,0,2.22-.73,2.616,2.616,0,0,0,.74-1.95,2.5,2.5,0,0,0-.73-1.92,3.177,3.177,0,0,0-2.23-.68H62.94Zm25-2.7a3.851,3.851,0,0,1-1.19,2.89,5.047,5.047,0,0,1-3.63,1.15H80.44V0H78.62V-13.94h4.5a5.1,5.1,0,0,1,3.59,1.14A3.827,3.827,0,0,1,87.94-9.86ZM83.12-7.32a3.235,3.235,0,0,0,2.24-.66,2.422,2.422,0,0,0,.72-1.88q0-2.58-2.96-2.58H80.44v5.12ZM97.54,0,94.22-5.7h-2.2V0H90.2V-13.94h4.5a5.974,5.974,0,0,1,2.67.54A3.76,3.76,0,0,1,99-11.94a4.07,4.07,0,0,1,.54,2.1,4.1,4.1,0,0,1-.83,2.54,4.056,4.056,0,0,1-2.49,1.46L99.72,0ZM92.02-7.16H94.7a3.041,3.041,0,0,0,2.22-.73,2.616,2.616,0,0,0,.74-1.95,2.5,2.5,0,0,0-.73-1.92,3.177,3.177,0,0,0-2.23-.68H92.02ZM108.68.14a7.034,7.034,0,0,1-3.54-.91,6.661,6.661,0,0,1-2.53-2.54,7.273,7.273,0,0,1-.93-3.67,7.273,7.273,0,0,1,.93-3.67,6.661,6.661,0,0,1,2.53-2.54,7.034,7.034,0,0,1,3.54-.91,7.073,7.073,0,0,1,3.56.91,6.61,6.61,0,0,1,2.52,2.53,7.32,7.32,0,0,1,.92,3.68,7.32,7.32,0,0,1-.92,3.68,6.61,6.61,0,0,1-2.52,2.53A7.073,7.073,0,0,1,108.68.14Zm0-1.58a5.137,5.137,0,0,0,2.63-.68,4.786,4.786,0,0,0,1.84-1.94,6.128,6.128,0,0,0,.67-2.92,6.113,6.113,0,0,0-.67-2.93,4.823,4.823,0,0,0-1.83-1.93,5.122,5.122,0,0,0-2.64-.68,5.122,5.122,0,0,0-2.64.68,4.822,4.822,0,0,0-1.83,1.93,6.113,6.113,0,0,0-.67,2.93,6.128,6.128,0,0,0,.67,2.92,4.786,4.786,0,0,0,1.84,1.94A5.137,5.137,0,0,0,108.68-1.44Zm16.42-12.5v10.3a3.659,3.659,0,0,1-1.06,2.75,3.847,3.847,0,0,1-2.8,1.03,3.832,3.832,0,0,1-2.82-1.05,3.857,3.857,0,0,1-1.06-2.87h1.82a2.671,2.671,0,0,0,.53,1.66,1.838,1.838,0,0,0,1.53.64,1.851,1.851,0,0,0,1.52-.61,2.365,2.365,0,0,0,.5-1.55v-10.3Zm5.4,1.48V-7.8h5.08v1.5H130.5v4.8h5.68V0h-7.5V-13.96h7.5v1.5Zm7.76,5.48a7.335,7.335,0,0,1,.92-3.67,6.683,6.683,0,0,1,2.51-2.55,6.921,6.921,0,0,1,3.53-.92,7.163,7.163,0,0,1,3.98,1.1,6.3,6.3,0,0,1,2.48,3.12H149.5a4.377,4.377,0,0,0-1.67-1.94,4.832,4.832,0,0,0-2.61-.68,5.083,5.083,0,0,0-2.62.68,4.755,4.755,0,0,0-1.82,1.93,6.188,6.188,0,0,0-.66,2.93,6.144,6.144,0,0,0,.66,2.91,4.755,4.755,0,0,0,1.82,1.93,5.083,5.083,0,0,0,2.62.68,4.888,4.888,0,0,0,2.61-.67,4.315,4.315,0,0,0,1.67-1.93h2.18A6.258,6.258,0,0,1,149.2-.97,7.212,7.212,0,0,1,145.22.12a6.98,6.98,0,0,1-3.53-.91,6.631,6.631,0,0,1-2.51-2.53A7.28,7.28,0,0,1,138.26-6.98Zm24.7-6.96v1.48h-3.8V0h-1.82V-12.46h-3.82v-1.48ZM169.62.14a5.962,5.962,0,0,1-2.47-.49,4.116,4.116,0,0,1-1.71-1.36,3.485,3.485,0,0,1-.64-2.01h1.94a2.555,2.555,0,0,0,.81,1.65,2.907,2.907,0,0,0,2.07.67,3.025,3.025,0,0,0,2.05-.65,2.109,2.109,0,0,0,.75-1.67,1.9,1.9,0,0,0-.44-1.3,2.811,2.811,0,0,0-1.1-.76,17.188,17.188,0,0,0-1.78-.56,15.676,15.676,0,0,1-2.21-.72,3.559,3.559,0,0,1-1.42-1.13,3.319,3.319,0,0,1-.59-2.07,3.587,3.587,0,0,1,.58-2.02,3.778,3.778,0,0,1,1.63-1.36,5.739,5.739,0,0,1,2.41-.48,5.048,5.048,0,0,1,3.21.98,3.62,3.62,0,0,1,1.41,2.6h-2a2.158,2.158,0,0,0-.84-1.41,2.984,2.984,0,0,0-1.96-.61,2.839,2.839,0,0,0-1.86.59,2.014,2.014,0,0,0-.72,1.65,1.788,1.788,0,0,0,.43,1.24,2.772,2.772,0,0,0,1.06.73q.63.25,1.77.57a16.624,16.624,0,0,1,2.22.75,3.7,3.7,0,0,1,1.44,1.14,3.315,3.315,0,0,1,.6,2.09,3.67,3.67,0,0,1-.54,1.92,3.969,3.969,0,0,1-1.6,1.46A5.28,5.28,0,0,1,169.62.14Z" transform="translate(151 55)" fill="#1d1e1a"/>
    </g>
  </g>
</svg>
