<svg xmlns="http://www.w3.org/2000/svg" width="272" height="72" viewBox="0 0 272 72">
  <g id="Grupo_1" data-name="Grupo 1" transform="translate(-87 174)">
    <path id="Uni칩n_7" data-name="Uni칩n 7" d="M23.77,51.5a26.252,26.252,0,0,1-3.164-.444A25.78,25.78,0,0,1,.3,22.111a25.256,25.256,0,0,1,3.177-9.183A25.818,25.818,0,0,1,21.595.391C22.66.223,26.467-.234,27.314.149c-.5.065-1.021.032-1.511.084a24.717,24.717,0,0,0-3.758.7,25.738,25.738,0,0,0-17.924,33C7.863,42.63,14.782,50.553,25.028,51.342a18.99,18.99,0,0,1,2.141.129l-.349.093c-.135.016-.369.022-.652.022C25.349,51.586,24.126,51.533,23.77,51.5Zm-7.307-7.262c.666.226,1.857.95,3.422,1.46a21.462,21.462,0,0,0,4.086.9,21.211,21.211,0,0,0,8.9-.847,22.137,22.137,0,0,0,7.878-4.608l1.229-1.264a15.521,15.521,0,0,0,2.128-2.875l5.538-.007a11.3,11.3,0,0,1-1.189,1.947,24.567,24.567,0,0,1-2.81,3.276,22.428,22.428,0,0,1-9.8,5.575,21.505,21.505,0,0,1-5.832.787A22.769,22.769,0,0,1,16.463,44.242Zm11.2-7.182.047-6.463-1,1.507a13.769,13.769,0,0,1-1.733,2.341,4.006,4.006,0,0,1-2.835,1.137c-2.862,0-3.924-2.247-5.141-3.978-2.507-3.566-4.916-7.322-7.432-10.87l-2.81-4.111a11.465,11.465,0,0,1-.879-1.355l6.919,0a37.863,37.863,0,0,1,2.344,3.29c.747,1.1,1.49,2.149,2.246,3.291l3.4,4.981c.335.486.851,1.173,1.106,1.659.192-.13.068-.026.211-.205a1.68,1.68,0,0,0,.122-.186c.116-.179.157-.239.274-.418.2-.311.342-.542.541-.845L30.14,16c.189-.286.306-.587.587-.745l6.136.027L35.8,17.119q2.986,0,5.975-.006a18.506,18.506,0,0,1,4.364.341,9.054,9.054,0,0,1,3.232,1.39A6.618,6.618,0,0,1,51.052,20.4a7.324,7.324,0,0,1,.145,8.205,4.412,4.412,0,0,1-.49.586,4.12,4.12,0,0,1-1.173.983c-.027.079.007.031-.1.123l-.563.351a6.519,6.519,0,0,1-.77.371A13.794,13.794,0,0,1,42.074,32c-3.093,0-6.194-.021-9.288,0v4.867c0,.238.009.22-.019.2s-.048-.021-.1.024Zm2.358-10L41.7,26.884c.209,0,.427,0,.646.008a5.858,5.858,0,0,0,2.948-.419c1.613-.936,1.8-4.109-1.858-4.148-2.673-.027-5.364-.005-8.039,0H32.775ZM44.115,14.612a8.7,8.7,0,0,0-1.007-1.5c-.219-.28-.356-.442-.552-.7l-1.8-1.938a24.423,24.423,0,0,0-4.379-3.109,23.478,23.478,0,0,0-3.5-1.5,21.282,21.282,0,0,0-12.991.061c-1.583.524-2.713,1.214-3.424,1.46,4.487-3.562,12.358-5.528,19.386-3.562a22.714,22.714,0,0,1,8.128,4.125L45.227,9.04a20.33,20.33,0,0,1,2.6,2.788c.217.285.43.554.634.848a12.3,12.3,0,0,1,1.194,1.957Z" transform="translate(92 -164)" fill="#fff" stroke="rgba(0,0,0,0)" stroke-miterlimit="10" stroke-width="1"/>
    <path id="Trazado_2542" data-name="Trazado 2542" d="M14.42-14.04,9.44,0H5.16L.18-14.04H3.82L7.3-3.44l3.5-10.6Zm4.84,0V0H15.84V-14.04Zm5.9,11.4h4.48V0h-7.9V-14.04h3.42ZM39.42,0,34.7-6.2V0H31.28V-14.04H34.7v6.16l4.68-6.16H43.4L37.96-7.16,43.6,0Zm9.22-11.3v2.84h4.58v2.64H48.64v3.08h5.18V0h-8.6V-14.04h8.6v2.74Zm10.82,0v2.84h4.58v2.64H59.46v3.08h5.18V0h-8.6V-14.04h8.6v2.74ZM74.02,0,71.1-5.3h-.82V0H66.86V-14.04H72.6a6.319,6.319,0,0,1,2.83.58,4,4,0,0,1,1.75,1.59,4.437,4.437,0,0,1,.58,2.25,4.179,4.179,0,0,1-.79,2.5,4.252,4.252,0,0,1-2.33,1.56L77.88,0ZM70.28-7.72H72.4a1.941,1.941,0,0,0,1.41-.46,1.736,1.736,0,0,0,.47-1.3,1.682,1.682,0,0,0-.47-1.26,1.941,1.941,0,0,0-1.41-.46H70.28Zm24.56-1.8a4.521,4.521,0,0,1-.56,2.23,4.117,4.117,0,0,1-1.72,1.63,6.055,6.055,0,0,1-2.88.62H87.56V0H84.14V-14.04h5.54a6.3,6.3,0,0,1,2.84.58,3.986,3.986,0,0,1,1.74,1.6A4.65,4.65,0,0,1,94.84-9.52ZM89.42-7.76a2.04,2.04,0,0,0,1.46-.46,1.716,1.716,0,0,0,.48-1.3,1.716,1.716,0,0,0-.48-1.3,2.04,2.04,0,0,0-1.46-.46H87.56v3.52ZM103.78,0l-2.92-5.3h-.82V0H96.62V-14.04h5.74a6.319,6.319,0,0,1,2.83.58,4,4,0,0,1,1.75,1.59,4.437,4.437,0,0,1,.58,2.25,4.179,4.179,0,0,1-.79,2.5,4.252,4.252,0,0,1-2.33,1.56L107.64,0Zm-3.74-7.72h2.12a1.941,1.941,0,0,0,1.41-.46,1.736,1.736,0,0,0,.47-1.3,1.682,1.682,0,0,0-.47-1.26,1.941,1.941,0,0,0-1.41-.46h-2.12ZM116.3.14a7.328,7.328,0,0,1-3.63-.92,6.877,6.877,0,0,1-2.62-2.57,7.183,7.183,0,0,1-.97-3.71,7.129,7.129,0,0,1,.97-3.7,6.9,6.9,0,0,1,2.62-2.56,7.328,7.328,0,0,1,3.63-.92,7.328,7.328,0,0,1,3.63.92,6.755,6.755,0,0,1,2.6,2.56,7.246,7.246,0,0,1,.95,3.7,7.241,7.241,0,0,1-.96,3.71,6.826,6.826,0,0,1-2.6,2.57A7.272,7.272,0,0,1,116.3.14Zm0-3.12a3.445,3.445,0,0,0,2.69-1.12A4.252,4.252,0,0,0,120-7.06a4.244,4.244,0,0,0-1.01-2.97,3.46,3.46,0,0,0-2.69-1.11,3.5,3.5,0,0,0-2.71,1.1,4.236,4.236,0,0,0-1.01,2.98,4.244,4.244,0,0,0,1.01,2.97A3.484,3.484,0,0,0,116.3-2.98Zm17.88-11.06v9.56a4.519,4.519,0,0,1-1.25,3.42,4.662,4.662,0,0,1-3.37,1.2A4.985,4.985,0,0,1,126-1.12a4.676,4.676,0,0,1-1.34-3.58h3.4a2.1,2.1,0,0,0,.36,1.33,1.254,1.254,0,0,0,1.04.45,1.191,1.191,0,0,0,.96-.4,1.745,1.745,0,0,0,.34-1.16v-9.56Zm6.18,2.74v2.84h4.58v2.64h-4.58v3.08h5.18V0h-8.6V-14.04h8.6v2.74Zm6.82,4.26a7.547,7.547,0,0,1,.9-3.71,6.432,6.432,0,0,1,2.51-2.54,7.287,7.287,0,0,1,3.65-.91,6.984,6.984,0,0,1,4.28,1.32,6.339,6.339,0,0,1,2.38,3.6h-3.76a3.037,3.037,0,0,0-1.19-1.34,3.346,3.346,0,0,0-1.75-.46,3.266,3.266,0,0,0-2.56,1.1,4.256,4.256,0,0,0-.98,2.94,4.256,4.256,0,0,0,.98,2.94A3.266,3.266,0,0,0,154.2-3a3.346,3.346,0,0,0,1.75-.46,3.037,3.037,0,0,0,1.19-1.34h3.76a6.293,6.293,0,0,1-2.38,3.59A7.021,7.021,0,0,1,154.24.1a7.287,7.287,0,0,1-3.65-.91,6.45,6.45,0,0,1-2.51-2.53A7.49,7.49,0,0,1,147.18-7.04Zm25.92-7v2.74h-3.72V0h-3.42V-11.3h-3.72v-2.74ZM179.9.14a7.222,7.222,0,0,1-2.76-.5,4.5,4.5,0,0,1-1.95-1.48,4.043,4.043,0,0,1-.77-2.36h3.64a1.766,1.766,0,0,0,.54,1.19,1.736,1.736,0,0,0,1.2.41,1.877,1.877,0,0,0,1.2-.35,1.171,1.171,0,0,0,.44-.97,1.148,1.148,0,0,0-.35-.86,2.823,2.823,0,0,0-.86-.56,13.833,13.833,0,0,0-1.45-.5,15.788,15.788,0,0,1-2.22-.84,4.1,4.1,0,0,1-1.48-1.24,3.455,3.455,0,0,1-.62-2.14,3.68,3.68,0,0,1,1.42-3.07,5.835,5.835,0,0,1,3.7-1.11,5.9,5.9,0,0,1,3.74,1.11,3.973,3.973,0,0,1,1.52,3.09h-3.7a1.447,1.447,0,0,0-.5-1.07,1.761,1.761,0,0,0-1.18-.39,1.471,1.471,0,0,0-1,.33,1.19,1.19,0,0,0-.38.95,1.178,1.178,0,0,0,.64,1.06,10.491,10.491,0,0,0,2,.82,18.5,18.5,0,0,1,2.21.88,4.207,4.207,0,0,1,1.47,1.22,3.266,3.266,0,0,1,.62,2.06A4.042,4.042,0,0,1,184.41-2a4.272,4.272,0,0,1-1.77,1.56A6.059,6.059,0,0,1,179.9.14Z" transform="translate(166 -131)" fill="#fff"/>
    <rect id="Rect치ngulo_4" data-name="Rect치ngulo 4" width="272" height="72" transform="translate(87 -174)" fill="none"/>
  </g>
</svg>
